<svg xmlns="http://www.w3.org/2000/svg" xmlns:xlink="http://www.w3.org/1999/xlink" width="500" zoomAndPan="magnify" viewBox="0 0 375 374.999991" height="500" preserveAspectRatio="xMidYMid meet" version="1.0"><defs><g/><clipPath id="4c4f0b3179"><path d="M 50 181 L 104 181 L 104 262 L 50 262 Z M 50 181 " clip-rule="nonzero"/></clipPath><clipPath id="f42acece5b"><path d="M -10.492188 188.140625 L 118.746094 52.296875 L 207.316406 136.558594 L 78.078125 272.40625 Z M -10.492188 188.140625 " clip-rule="nonzero"/></clipPath><clipPath id="22dcfc0ff1"><path d="M -10.492188 188.140625 L 118.746094 52.296875 L 207.316406 136.558594 L 78.078125 272.40625 Z M -10.492188 188.140625 " clip-rule="nonzero"/></clipPath><clipPath id="dcd81d6ade"><path d="M 36.066406 232.433594 L 91.886719 173.757812 L 134.296875 214.105469 L 78.476562 272.78125 Z M 36.066406 232.433594 " clip-rule="nonzero"/></clipPath><clipPath id="3dd4ca83fe"><path d="M 36.066406 232.433594 L 91.886719 173.757812 L 133.996094 213.816406 L 78.171875 272.496094 Z M 36.066406 232.433594 " clip-rule="nonzero"/></clipPath><clipPath id="0dcd310b6b"><path d="M 0 67 L 193 67 L 193 215 L 0 215 Z M 0 67 " clip-rule="nonzero"/></clipPath><clipPath id="10389de78e"><path d="M -10.492188 188.140625 L 118.746094 52.296875 L 207.316406 136.558594 L 78.078125 272.40625 Z M -10.492188 188.140625 " clip-rule="nonzero"/></clipPath><clipPath id="55c40cae4e"><path d="M -10.492188 188.140625 L 118.746094 52.296875 L 207.316406 136.558594 L 78.078125 272.40625 Z M -10.492188 188.140625 " clip-rule="nonzero"/></clipPath><clipPath id="1b9546ebfb"><path d="M -10.410156 188.21875 L 118.921875 52.277344 L 196.1875 125.785156 L 66.855469 261.726562 Z M -10.410156 188.21875 " clip-rule="nonzero"/></clipPath><clipPath id="85b1832f55"><path d="M -10.410156 188.21875 L 118.730469 52.472656 L 196 125.980469 L 66.855469 261.726562 Z M -10.410156 188.21875 " clip-rule="nonzero"/></clipPath></defs><g clip-path="url(#4c4f0b3179)"><g clip-path="url(#f42acece5b)"><g clip-path="url(#22dcfc0ff1)"><g clip-path="url(#dcd81d6ade)"><g clip-path="url(#3dd4ca83fe)"><path fill="#5271ff" d="M 66.523438 245.878906 C 60.492188 240.21875 60.222656 230.496094 65.929688 224.511719 C 71.664062 218.496094 81.175781 218.164062 87.109375 223.773438 C 93.203125 229.53125 93.519531 239.449219 87.796875 245.316406 C 82.074219 251.179688 72.449219 251.433594 66.523438 245.878906 Z M 103.152344 228.910156 C 101.992188 223.640625 99.625 218.898438 96.785156 214.375 C 93.140625 208.578125 91.859375 202.546875 94.308594 195.875 C 96.046875 191.144531 97.667969 186.363281 99.253906 181.574219 L 77.007812 189.421875 C 75.613281 193.910156 74.015625 198.902344 72.6875 202.875 C 72.1875 204.375 70.761719 205.132812 69.660156 206.125 C 65.445312 209.902344 60.90625 213.332031 57.15625 217.601562 C 48.277344 227.722656 47.957031 239.953125 56.210938 251.105469 C 63.296875 260.671875 76.789062 264 88.039062 258.960938 C 100.113281 253.550781 105.996094 241.851562 103.152344 228.910156 " fill-opacity="1" fill-rule="nonzero"/></g></g></g></g></g><g clip-path="url(#0dcd310b6b)"><g clip-path="url(#10389de78e)"><g clip-path="url(#55c40cae4e)"><g clip-path="url(#1b9546ebfb)"><g clip-path="url(#85b1832f55)"><path fill="#5271ff" d="M 16.753906 198.527344 C 10.910156 192.886719 10.683594 183.261719 16.253906 177.253906 C 21.828125 171.246094 31.75 171.066406 37.804688 176.867188 C 43.703125 182.511719 43.84375 192.035156 38.121094 198.058594 C 32.429688 204.054688 22.707031 204.269531 16.753906 198.527344 Z M 98.75 162.164062 C 98.75 162.164062 98.753906 162.167969 98.753906 162.167969 C 98.753906 162.167969 98.757812 162.171875 98.757812 162.171875 C 101.695312 164.964844 101.8125 169.613281 99.015625 172.550781 C 96.222656 175.488281 91.574219 175.605469 88.636719 172.808594 C 88.636719 172.808594 88.636719 172.804688 88.636719 172.804688 C 88.632812 172.804688 88.628906 172.804688 88.628906 172.804688 C 85.691406 170.007812 85.578125 165.359375 88.371094 162.421875 C 91.167969 159.484375 95.8125 159.367188 98.75 162.164062 Z M 59.394531 190.230469 C 65.800781 187.722656 78.988281 182.867188 78.953125 182.984375 L 103.507812 173.492188 C 124.886719 165.109375 146.292969 156.785156 167.078125 146.984375 C 173.054688 144.164062 179.097656 141.421875 184.308594 137.261719 C 187.09375 135.039062 189.574219 132.476562 191.117188 129.195312 C 192.488281 126.28125 192.589844 123.425781 190.429688 120.746094 C 189.492188 119.582031 188.59375 119.324219 187.113281 119.921875 C 171.246094 126.316406 155.351562 132.632812 139.464844 138.96875 C 130.347656 142.605469 109.796875 150.609375 109.820312 150.539062 C 109.746094 150.5625 116.714844 129.636719 119.894531 120.351562 C 125.433594 104.171875 130.949219 87.980469 136.546875 71.8125 C 137.070312 70.304688 136.765625 69.417969 135.554688 68.539062 C 132.773438 66.519531 129.925781 66.761719 127.085938 68.273438 C 123.882812 69.980469 121.449219 72.585938 119.367188 75.480469 C 115.46875 80.890625 113.03125 87.0625 110.515625 93.171875 C 101.761719 114.417969 94.515625 136.214844 87.207031 157.984375 C 86.777344 159.257812 86.171875 160.003906 84.875 160.503906 C 78.320312 163.019531 71.765625 165.539062 65.308594 168.285156 C 58.769531 171.066406 52.683594 170.085938 46.710938 166.734375 C 42.050781 164.121094 37.195312 161.996094 31.878906 161.101562 C 18.808594 158.90625 7.417969 165.363281 2.617188 177.695312 C -1.859375 189.179688 2.140625 202.488281 12.046875 209.089844 C 23.59375 216.777344 35.796875 215.847656 45.460938 206.472656 C 49.539062 202.515625 52.734375 197.8125 56.300781 193.417969 C 57.234375 192.265625 57.921875 190.804688 59.394531 190.230469 " fill-opacity="1" fill-rule="nonzero"/></g></g></g></g></g><g fill="#000000" fill-opacity="1"><g transform="translate(3.12023, 204.227546)"><g><path d="M 20.085938 0.605469 C 29.449219 0.605469 36.429688 -4.90625 37.746094 -13.257812 L 29.246094 -13.257812 C 28.234375 -9.5625 24.84375 -7.285156 20.238281 -7.285156 C 14.21875 -7.285156 10.472656 -11.6875 10.472656 -18.722656 C 10.472656 -25.855469 14.167969 -30.15625 20.238281 -30.15625 C 24.742188 -30.15625 27.929688 -28.03125 29.042969 -24.289062 L 37.695312 -24.289062 C 36.53125 -32.6875 29.800781 -38.050781 20.441406 -38.050781 C 9.257812 -38.050781 1.820312 -30.359375 1.820312 -18.671875 C 1.820312 -6.832031 8.855469 0.605469 20.085938 0.605469 Z M 20.085938 0.605469 "/></g></g></g><g fill="#000000" fill-opacity="1"><g transform="translate(45.973185, 204.227546)"><g><path d="M 38.503906 -18.773438 C 38.503906 -30.207031 31.015625 -38.101562 20.136719 -38.101562 C 9.308594 -38.101562 1.820312 -30.15625 1.820312 -18.722656 C 1.820312 -7.285156 9.257812 0.605469 20.085938 0.605469 C 30.964844 0.605469 38.503906 -7.335938 38.503906 -18.773438 Z M 29.851562 -18.773438 C 29.851562 -11.6875 26.210938 -7.285156 20.1875 -7.285156 C 14.117188 -7.285156 10.472656 -11.585938 10.472656 -18.773438 C 10.472656 -25.90625 14.117188 -30.207031 20.1875 -30.207031 C 26.210938 -30.207031 29.851562 -25.90625 29.851562 -18.773438 Z M 29.851562 -18.773438 "/></g></g></g><g fill="#000000" fill-opacity="1"><g transform="translate(89.838, 204.227546)"><g><path d="M 11.992188 0 L 11.992188 -23.78125 L 27.777344 0 L 35.875 0 L 35.875 -37.441406 L 27.777344 -37.441406 L 27.777344 -13.609375 L 11.992188 -37.441406 L 3.894531 -37.441406 L 3.894531 0 Z M 11.992188 0 "/></g></g></g><g fill="#000000" fill-opacity="1"><g transform="translate(133.146298, 204.227546)"><g><path d="M 18.570312 0 C 29.246094 0 36.683594 -7.691406 36.683594 -18.621094 C 36.683594 -29.753906 29.042969 -37.441406 18.0625 -37.441406 L 3.894531 -37.441406 L 3.894531 0 Z M 17.253906 -29.851562 C 24.035156 -29.851562 28.03125 -25.703125 28.03125 -18.621094 C 28.03125 -11.6875 24.238281 -7.589844 17.761719 -7.589844 L 12.09375 -7.589844 L 12.09375 -29.851562 Z M 17.253906 -29.851562 "/></g></g></g><g fill="#000000" fill-opacity="1"><g transform="translate(175.189757, 204.227546)"><g><path d="M 27.675781 0 L 27.675781 -7.589844 L 12.09375 -7.589844 L 12.09375 -15.332031 L 25.90625 -15.332031 L 25.90625 -22.515625 L 12.09375 -22.515625 L 12.09375 -29.851562 L 27.675781 -29.851562 L 27.675781 -37.441406 L 3.894531 -37.441406 L 3.894531 0 Z M 27.675781 0 "/></g></g></g><g fill="#000000" fill-opacity="1"><g transform="translate(209.239541, 204.227546)"><g><path d="M 11.992188 0 L 11.992188 -23.78125 L 27.777344 0 L 35.875 0 L 35.875 -37.441406 L 27.777344 -37.441406 L 27.777344 -13.609375 L 11.992188 -37.441406 L 3.894531 -37.441406 L 3.894531 0 Z M 11.992188 0 "/></g></g></g><g fill="#000000" fill-opacity="1"><g transform="translate(252.547829, 204.227546)"><g><path d="M 1.820312 -26.5625 C 1.820312 -20.441406 5.261719 -16.648438 11.941406 -15.28125 L 17.660156 -14.117188 C 20.136719 -13.609375 21.097656 -12.546875 21.097656 -10.472656 C 21.097656 -8.097656 18.773438 -6.628906 15.078125 -6.628906 C 11.433594 -6.628906 9.410156 -8.144531 9.410156 -10.878906 L 1.265625 -10.878906 C 1.265625 -3.84375 6.679688 0.65625 15.027344 0.65625 C 23.628906 0.65625 29.296875 -4.046875 29.296875 -11.285156 C 29.296875 -17.203125 26.109375 -20.390625 19.429688 -21.757812 L 13.8125 -22.921875 C 11.183594 -23.476562 10.019531 -24.589844 10.019531 -26.867188 C 10.019531 -29.347656 12.144531 -30.863281 15.484375 -30.863281 C 18.570312 -30.863281 20.542969 -29.246094 20.542969 -26.613281 L 28.6875 -26.613281 C 28.6875 -33.699219 23.628906 -38.152344 15.585938 -38.152344 C 7.539062 -38.152344 1.820312 -33.34375 1.820312 -26.5625 Z M 1.820312 -26.5625 "/></g></g></g><g fill="#000000" fill-opacity="1"><g transform="translate(286.901165, 204.227546)"><g><path d="M 12.09375 -37.441406 L 3.894531 -37.441406 L 3.894531 0 L 12.09375 0 Z M 12.09375 -37.441406 "/></g></g></g><g fill="#000000" fill-opacity="1"><g transform="translate(306.430776, 204.227546)"><g><path d="M 25.25 -14.621094 L 25.25 -22.011719 L 12.09375 -22.011719 L 12.09375 -29.851562 L 27.726562 -29.851562 L 27.726562 -37.441406 L 3.894531 -37.441406 L 3.894531 0 L 12.09375 0 L 12.09375 -14.621094 Z M 25.25 -14.621094 "/></g></g></g><g fill="#000000" fill-opacity="1"><g transform="translate(339.418098, 204.227546)"><g><path d="M 13.15625 -14.21875 L 13.15625 0 L 21.351562 0 L 21.351562 -14.21875 L 34.003906 -37.441406 L 25.097656 -37.441406 L 18.824219 -25.351562 C 18.214844 -24.136719 17.8125 -23.175781 17.355469 -22.261719 C 16.949219 -23.226562 16.546875 -24.136719 15.9375 -25.300781 L 9.664062 -37.441406 L 0.507812 -37.441406 Z M 13.15625 -14.21875 "/></g></g></g></svg>